{"title":"Sibelius - Kullervo (Sir Colin Davis &amp; the LSO, 1992) [MP4 4","uid":6838332,"size":845495465,"categoryP":"video","categoryS":"music_videos","magnet":"?xt=urn:btih:26201f24019c74f03b5d0c17338fece8e08002c9&amp;dn=Sibelius+-+Kullervo+%28Sir+Colin+Davis+%26amp%3B+the+LSO%2C+1992%29+%5BMP4+4&amp;tr=udp%3A%2F%2Ftracker.openbittorrent.com%3A80&amp;tr=udp%3A%2F%2Fopen.demonii.com%3A1337&amp;tr=udp%3A%2F%2Ftracker.coppersurfer.tk%3A6969&amp;tr=udp%3A%2F%2Fexodus.desync.com%3A6969","seeders":1,"leechers":1,"uploader":null,"files":3,"time":1322081863,"description":"Sir Colin Davis conducts the LSO in a performance of Sibelius' symphonic epic based on the warrior hero Kullervo. This concert was recorded in 1992 as part of the Barbican Centre's Tender is the North festival of Scandinavian culture.\n\nFormat : MPEG-4\nFormat profile : Base Media\nCodec ID : isom\nFile size : 806 MiB\nDuration : 1h 15mn\nOverall bit rate : 1 502 Kbps\nWriting application : Lavf53.13.0\n\nVideo\nID : 1\nFormat : AVC\nFormat/Info : Advanced Video Codec\nFormat profile : &lt;a class=&quot;__cf_email__&quot; href=&quot;/cdn-cgi/l/email-protection&quot; data-cfemail=&quot;1d507c74735d512e332d&quot;&gt;[email&amp;#160;protected]&lt;/a&gt;&lt;script cf-hash='f9e31' type=&quot;text/javascript&quot;&gt;\n/* &lt;![CDATA[ */!function(){try{var t=&quot;currentScript&quot;in document?document.currentScript:function(){for(var t=document.getElementsByTagName(&quot;script&quot;),e=t.length;e--;)if(t[e].getAttribute(&quot;cf-hash&quot;))return t[e]}();if(t&amp;&amp;t.previousSibling){var e,r,n,i,c=t.previousSibling,a=c.getAttribute(&quot;data-cfemail&quot;);if(a){for(e=&quot;&quot;,r=parseInt(a.substr(0,2),16),n=2;a.length-n;n+=2)i=parseInt(a.substr(n,2),16)^r,e+=String.fromCharCode(i);e=document.createTextNode(e),c.parentNode.replaceChild(e,c)}}}catch(u){}}();/* ]]&gt; */&lt;/script&gt;\nFormat settings, CABAC : Yes\nFormat settings, ReFrames : 4 frames\nCodec ID : avc1\nCodec ID/Info : Advanced Video Coding\nDuration : 1h 15mn\nBit rate mode : Constant\nBit rate : 1 404 Kbps\nWidth : 832 pixels\nHeight : 468 pixels\nDisplay aspect ratio : 16:9\nFrame rate mode : Constant\nFrame rate : 25.000 fps\nStandard : PAL\nColor space : YUV\nChroma subsampling : 4:2:0\nBit depth : 8 bits\nScan type : Progressive\nBits/(Pixel*Frame) : 0.144\nStream size : 752 MiB (93%)\n\nAudio\nID : 2\nFormat : AAC\nFormat/Info : Advanced Audio Codec\nFormat profile : HE-AAC / LC\nCodec ID : 40\nDuration : 1h 15mn\nBit rate mode : Constant\nBit rate : 96.0 Kbps\nChannel(s) : 2 channels\nChannel positions : Front: L R\nSampling rate : 48.0 KHz / 24.0 KHz\nCompression mode : Lossy\nStream size : 50.8 MiB (6%)","torrent":{"xt":"urn:btih:26201f24019c74f03b5d0c17338fece8e08002c9","amp;dn":"Sibelius+-+Kullervo+%28Sir+Colin+Davis+%26amp%3B+the+LSO%2C+1992%29+%5BMP4+4","amp;tr":["udp%3A%2F%2Ftracker.openbittorrent.com%3A80","udp%3A%2F%2Fopen.demonii.com%3A1337","udp%3A%2F%2Ftracker.coppersurfer.tk%3A6969","udp%3A%2F%2Fexodus.desync.com%3A6969"],"infoHash":"26201f24019c74f03b5d0c17338fece8e08002c9","infoHashBuffer":{"type":"Buffer","data":[38,32,31,36,1,156,116,240,59,93,12,23,51,143,236,232,224,128,2,201]},"announce":[],"urlList":[]}}